<mxfile host="65bd71144e">
    <diagram id="fEH0jCM9jVXo35o1cyl-" name="Page-1">
        <mxGraphModel dx="2775" dy="1375" grid="1" gridSize="10" guides="1" tooltips="1" connect="1" arrows="1" fold="1" page="1" pageScale="1" pageWidth="850" pageHeight="1100" math="0" shadow="0">
            <root>
                <mxCell id="0"/>
                <mxCell id="1" parent="0"/>
                <mxCell id="83" value="" style="shape=image;verticalLabelPosition=bottom;labelBackgroundColor=default;verticalAlign=top;aspect=fixed;imageAspect=0;image=data:image/png,iVBORw0KGgoAAAANSUhEUgAAAS4AAABICAYAAABImhiwAAAJZklEQVR4nO3de1RVZR7G8e8+clW8gugQamhBjIaYmFiaaOYlRVMzrOWtq1paWlnZrFpl09SM3cYsa3JMHAolkTTLZZpR3rPMNCsvgOQlBDFBucjl7PlDzwHj4lHGgS3PZ62zFmef/b7v72UtnvWed++tBjQwAbxG+GN4GIiI1GVmkYmb443haeDRyxfD2wZmbZYlIlIJA8wCO0Xrs8uCCw8bxdtOYBbawVRyiUgdYxgYXjbwsJUFl5lXCu42hZaI1E2miVloxyy2Yys7iEJLROo20wSTcsElImIRCi4RsRwFl4hYjoJLRCxHwSUilqPgEhHLUXCJiOUouETEchRcImI5Ci4RsRwFl4hYjoJLRCxHwSUilqPgEhHLUXCJiOUouETEchRcImI5Ci4RsRwFl4hYjoJLRCxHwSUilqPgEhHLUXBdpmyGjXFRMQztNqi2SxH5n3M7/ylS29wauJEblw7AwBdu5+ufNp+3Td9re/HOxNcACJvek/0ZaZe0xotxxw23sXDqW+SdzidoUjinCvOqPNfL3ZPji1IrHDdNk1OFeaRlprNu13rmrV7AwWOHzzmn/O/vj4pLS8g+eZxt+7czf20ca374smaTkv8LrbguUykZB8g4kcmeI/vJzDlW2+VUanyfOwFo5NmQ23sMdbndkeMZpB5NJ/VoOgeyfsXdzZ2wdh2ZNmQS383+kls693GpberRdLJyjtG6mT/REQNZ/lQcc+59GcMwajw3ubS04rpMpWWm035yl9ouo0pt/QKJ6ngjxaUluDdwY1zUaBZ+Ge9S23FzJrNpzzfO94ZhENEhnNfvfpHr2nfmPw/Po+O0G8g+efy8bQGaNmzCY0Mf4tGhD3Jfv7Hs+y2FNz97r2YTlEtKKy6pFWOjYjAMgwVfxHH0RCaRwRGEBFx1UX2Zpsm2/d8z4h/jyS04SZOGjRkROcTl9jn5uTy7+CXe/XwhAI8Pm6JVVx2n4LpM/bnNNeTHHyY/vmy/56FB95Eff5h1zy+vtE1Yu47kxx8mOzYFH69GzuONvX144raH+W72OrJjUzj03o8kzojlxmu6X1RthmEwtvcdAMRvSGTp5hUAjIsafVH9OWTmZLE9dSfARYXge2sWAdCyiR/Bf+pQo1rk0lJw1SNLN6+g1F5K96u70rqZf4XPHVcgP9u+xrlRHugbQPKsFTwX8yRBra7kQGY6BgaDruvH6meXMi4q5oLr6NOpJ239AknLTOebfdtZvDEJgLt6jcStQc12Lzzc3AHIP11wwW1/PXbI+XNzn2Y1qkMuLQVXPXL0RCbJuzdiGEalt0kMu/7MsSVng8Rm2Iid+jahgSHEb0jkyomd6TqjL4EPdGL6+3/BZth4456XaOsXeEF1OFZWCRvPrPy+S9nB/ow0WjXzZ2CXmy96fqGBIXRtHw7Atyk7Lrh9u5ZtnD8fP/X7Rdchl56Cq55JOBtKw66/9ZzjQf7t6NjmGnLyc/l8xzoABnftT4+Qbuw++AuT3nmU3IKTwJk9pXc/X0jilk/wcvdk7AWsupo2bOIMzYRNSeXq+hiA8Rf4ddEwDAJatGbMTaNYMfMDPN092JG2i5Xfrr6gfgAm9p8AQFbuMfb9VvHWC6k7dFWxnln+zSr+ee/L9AqNpIVPc+fKYmi3gQAkbf2UopJiAEb2iAbOrMCKS0sq9PXFzq8YGRlN96u7ujx+zI3D8XL3ZFf6T/x8aK/z+JKNy3h65HQGhPfFv2lLMnOyquxj7XNJVX628ZetjH7tPuym3aV6vD28aN/qSiYNmMA9fccA8MryuZim6eKMpDYouOqZ3IKTrNq+luHdBzMkoj+LkpcAEH02uD7a9LHz3NArggGYNXoms0bPrLLPVk1bujz+hLP3bjm+jjrs+y2V79N20iUojDE3jeK1T96uso+Dxw5TUFTofB/oG0BDT2/+tSaWaQuernb86kIP4K1V85m7av75piG1TMFVDy3esIzh3Qdz2/WDWZS8hJZN/IgMjiDjRCZf7d7kPM+viS8Ae47sJzf/ZJX9pWcddGncTm1DCQ+6FtM0SSgXkOXr6hIUxtiomGqD6+65U865F2vygHt4dcILDOs2iKc/eKHajfk/hl5JaTHZp37nhwM/Er9+Gd+n7XRpLlK7FFz10OodX5CTn0ufTr1o7O3D4K79sRk2EjevOOcrluMP/I1P5hGbvLjG4zpWW4ZhsHfutirPCwm4isjgCLbs/dalfhesi2N69GQCfQOYeuv9/D1pTpXn/jH0xJq0OV8PFZUUk7R1JZ7uHgzq0q/C1USH1KMHAAgPurbGY3q4uTO65wig4mM35V+OlZ3jcSBXnC4u4m+JrwMwPfpBWvg0r3G9UrcpuOopR0iN6T2KqI49ST2aXuEWglXb1wIwtncMAS1aV9pPRIdwl8YbEjGAFj7NOVWYR/hjN9Fp2g2Vvqb++0kARkZG08izocvzifs6gZSMAzTxbsyTwx9xuZ1Yk4Krnlr/0xaOHM+gX1gUnu4ele45LUpeTHrWQRp6epPw2AKC/Ns5P2vWqCnzJr7K13/9lAl97jrveI7bHJZtWVntvwKxYtsqjp/6HR+vRs6rmq4oKS3hxcRXAXjglvG08bvC5bZiPdrjspj5D86pdvP58dhnWLvzq/P2YzftfLR5OY8MngicezXRIe90PrfPnsCKmR9yXfvO7HpjAz8f2ovdbic44CrnPVNJW1dWO1ZAi9bcHNYbgNjk6h+kPl1cxIfrlzJl0P2Mj7rTedXTFQkbP2bGsCmEBobwzKgZPDBvmsttxVq04rKYQN8AggM6VPlq7O3jcl+LNywDqHBPVXm7D/5CtyduZvbyN9l7JIUOrYNo59+G3Qd/5qm454l6Npqc/Nxqxxnb+w5sho29R1LYvKfqTXmH99d9CECPkG4EB7j+zKDdtDPro1eAM48PhQaGuNxWrMWABiaA10h/DHc9ES8idZtZbGrFJSLWo+ASEctRcImI5Si4RMRyFFwiYjkKLhGxHAWXiFiOgktELEfBJSKWo+ASEctRcImI5Si4RMRyFFwiYjkKLhGxHAWXiFiOgktELEfBJSKWo+ASEctRcImI5Si4RMRyFFwiYjkKLhGxnLLgMmuxChERV5nl/idrw9PAo5cvhrdNISYidY8BZoGdovXZZcGFh43ibScwC+1gKrlEpI4xDAwvG3jYyoLLzCsFd5tCS0TqJtPELLRjFtv5L9bAFH4yer6gAAAAAElFTkSuQmCC;" vertex="1" parent="1">
                    <mxGeometry x="371" y="57" width="302" height="72" as="geometry"/>
                </mxCell>
                <mxCell id="22" style="edgeStyle=none;html=1;" parent="1" source="83" target="4" edge="1">
                    <mxGeometry relative="1" as="geometry">
                        <mxPoint x="516.83081570997" y="129" as="sourcePoint"/>
                    </mxGeometry>
                </mxCell>
                <mxCell id="47" value="" style="ellipse;whiteSpace=wrap;html=1;strokeColor=#7D7D7D;fontFamily=Consolas;fontSize=11;fillColor=none;dashed=1;strokeWidth=5;perimeterSpacing=2;" parent="1" vertex="1">
                    <mxGeometry x="-669" y="300" width="379" height="421.8" as="geometry"/>
                </mxCell>
                <mxCell id="7" value="" style="edgeStyle=none;html=1;" parent="1" source="4" target="6" edge="1">
                    <mxGeometry relative="1" as="geometry"/>
                </mxCell>
                <mxCell id="4" value="&lt;font face=&quot;Consolas&quot; style=&quot;font-size: 21px;&quot;&gt;Register&lt;/font&gt;" style="rounded=1;whiteSpace=wrap;html=1;fontSize=21;" parent="1" vertex="1">
                    <mxGeometry x="462" y="153.6" width="120" height="60" as="geometry"/>
                </mxCell>
                <mxCell id="102" value="&lt;font face=&quot;Consolas&quot; style=&quot;font-size: 33px;&quot;&gt;Stage 1&lt;/font&gt;" style="html=1;fontSize=21;" edge="1" parent="1" source="6" target="100">
                    <mxGeometry relative="1" as="geometry"/>
                </mxCell>
                <mxCell id="6" value="#scan_ARP_continuous" style="rounded=1;whiteSpace=wrap;html=1;fontFamily=Consolas;fillColor=#030303;fontColor=#ffffff;strokeColor=#005700;gradientColor=none;gradientDirection=radial;fontSize=19;" parent="1" vertex="1">
                    <mxGeometry x="373" y="246.69999999999996" width="300" height="90" as="geometry"/>
                </mxCell>
                <mxCell id="106" style="edgeStyle=none;html=1;fontFamily=Consolas;fontSize=33;" edge="1" parent="1" source="9" target="41">
                    <mxGeometry relative="1" as="geometry"/>
                </mxCell>
                <mxCell id="9" value="" style="image;html=1;image=img/lib/clip_art/computers/Network_128x128.png" parent="1" vertex="1">
                    <mxGeometry x="-450" y="431.20000000000005" width="130" height="130" as="geometry"/>
                </mxCell>
                <mxCell id="11" value="" style="points=[];aspect=fixed;html=1;align=center;shadow=0;dashed=0;image;image=img/lib/allied_telesis/computer_and_terminals/Personal_Computer.svg;" parent="1" vertex="1">
                    <mxGeometry x="-480" y="330" width="45.6" height="61.800000000000004" as="geometry"/>
                </mxCell>
                <mxCell id="12" value="" style="points=[];aspect=fixed;html=1;align=center;shadow=0;dashed=0;image;image=img/lib/allied_telesis/computer_and_terminals/Personal_Computer.svg;" parent="1" vertex="1">
                    <mxGeometry x="-570" y="360" width="45.6" height="61.800000000000004" as="geometry"/>
                </mxCell>
                <mxCell id="13" value="" style="points=[];aspect=fixed;html=1;align=center;shadow=0;dashed=0;image;image=img/lib/allied_telesis/computer_and_terminals/Personal_Computer.svg;" parent="1" vertex="1">
                    <mxGeometry x="-628.6" y="449.40000000000003" width="45.6" height="61.800000000000004" as="geometry"/>
                </mxCell>
                <mxCell id="14" value="" style="points=[];aspect=fixed;html=1;align=center;shadow=0;dashed=0;image;image=img/lib/allied_telesis/computer_and_terminals/Personal_Computer.svg;" parent="1" vertex="1">
                    <mxGeometry x="-615.6" y="580" width="45.6" height="61.800000000000004" as="geometry"/>
                </mxCell>
                <mxCell id="15" value="" style="points=[];aspect=fixed;html=1;align=center;shadow=0;dashed=0;image;image=img/lib/allied_telesis/computer_and_terminals/Personal_Computer.svg;" parent="1" vertex="1">
                    <mxGeometry x="-480" y="641.8" width="45.6" height="61.800000000000004" as="geometry"/>
                </mxCell>
                <mxCell id="23" value="" style="triangle;whiteSpace=wrap;html=1;fillColor=#00FF00;strokeColor=#000000;" parent="1" vertex="1">
                    <mxGeometry x="381" y="101.8" width="20" height="20" as="geometry"/>
                </mxCell>
                <mxCell id="42" value="&lt;font style=&quot;&quot;&gt;&lt;span style=&quot;font-size: 18px;&quot;&gt;ARP&lt;br&gt;&lt;/span&gt;&lt;/font&gt;&lt;font style=&quot;font-size: 11px;&quot;&gt;op=2 (is-at)&lt;/font&gt;" style="rounded=1;whiteSpace=wrap;html=1;fontFamily=Consolas;fillColor=#488011;fontColor=#ffffff;strokeColor=#2D7600;" parent="1" vertex="1">
                    <mxGeometry x="-209" y="492.8" width="170" height="60" as="geometry"/>
                </mxCell>
                <mxCell id="44" value="" style="endArrow=classic;html=1;fontFamily=Consolas;fontSize=11;startArrow=none;" parent="1" source="109" target="48" edge="1">
                    <mxGeometry width="50" height="50" relative="1" as="geometry">
                        <mxPoint x="-39" y="791.8" as="sourcePoint"/>
                        <mxPoint x="11" y="741.8" as="targetPoint"/>
                    </mxGeometry>
                </mxCell>
                <mxCell id="45" value="&lt;font style=&quot;font-size: 18px;&quot;&gt;is-at!&lt;/font&gt;" style="endArrow=none;html=1;fontFamily=Consolas;fontSize=11;" parent="1" source="15" target="9" edge="1">
                    <mxGeometry width="50" height="50" relative="1" as="geometry">
                        <mxPoint x="-423.4000000000001" y="638.7755617977527" as="sourcePoint"/>
                        <mxPoint x="-279" y="601.8" as="targetPoint"/>
                    </mxGeometry>
                </mxCell>
                <mxCell id="90" style="edgeStyle=none;html=1;exitX=1;exitY=0.25;exitDx=0;exitDy=0;" edge="1" parent="1" source="41" target="77">
                    <mxGeometry relative="1" as="geometry"/>
                </mxCell>
                <mxCell id="41" value="&lt;font style=&quot;font-size: 18px;&quot;&gt;Ether&lt;/font&gt;" style="rounded=1;whiteSpace=wrap;html=1;fontFamily=Consolas;fillColor=#70001A;fontColor=#ffffff;strokeColor=#6F0000;" parent="1" vertex="1">
                    <mxGeometry x="-219" y="552.8" width="190" height="60" as="geometry"/>
                </mxCell>
                <mxCell id="48" value="Network Storage" style="rounded=1;whiteSpace=wrap;html=1;fontFamily=Consolas;fillColor=#c056f5;fontColor=#ffffff;strokeColor=#6F0000;fontSize=22;" parent="1" vertex="1">
                    <mxGeometry x="341" y="920.0000000000001" width="270" height="60" as="geometry"/>
                </mxCell>
                <mxCell id="49" value="&lt;font style=&quot;font-size: 33px;&quot;&gt;Stage 2&lt;/font&gt;" style="edgeStyle=none;html=1;fontFamily=Consolas;" parent="1" source="6" target="77" edge="1">
                    <mxGeometry relative="1" as="geometry">
                        <mxPoint x="448.5" y="1000" as="sourcePoint"/>
                        <mxPoint x="564.7711864406781" y="440" as="targetPoint"/>
                    </mxGeometry>
                </mxCell>
                <mxCell id="55" value="" style="endArrow=none;dashed=1;html=1;fontFamily=Consolas;fontSize=32;fontColor=#195EFF;entryX=0.5;entryY=1;entryDx=0;entryDy=0;" parent="1" target="59" edge="1">
                    <mxGeometry width="50" height="50" relative="1" as="geometry">
                        <mxPoint x="1075" y="764" as="sourcePoint"/>
                        <mxPoint x="1106" y="184" as="targetPoint"/>
                    </mxGeometry>
                </mxCell>
                <mxCell id="56" value="" style="points=[];aspect=fixed;html=1;align=center;shadow=0;dashed=0;image;image=img/lib/allied_telesis/computer_and_terminals/Personal_Computer.svg;" parent="1" vertex="1">
                    <mxGeometry x="1590" y="114" width="45.6" height="61.800000000000004" as="geometry"/>
                </mxCell>
                <mxCell id="57" value="" style="endArrow=none;dashed=1;html=1;fontFamily=Consolas;fontSize=32;fontColor=#195EFF;entryX=0.497;entryY=1.003;entryDx=0;entryDy=0;entryPerimeter=0;" parent="1" target="56" edge="1">
                    <mxGeometry width="50" height="50" relative="1" as="geometry">
                        <mxPoint x="1613" y="754" as="sourcePoint"/>
                        <mxPoint x="1491.8" y="205.8" as="targetPoint"/>
                    </mxGeometry>
                </mxCell>
                <mxCell id="59" value="" style="image;html=1;image=img/lib/clip_art/computers/Network_128x128.png" parent="1" vertex="1">
                    <mxGeometry x="1020" y="114" width="110" height="60" as="geometry"/>
                </mxCell>
                <mxCell id="64" value="" style="endArrow=classic;html=1;fontFamily=Consolas;fontSize=32;fontColor=#195EFF;strokeWidth=4;" parent="1" edge="1">
                    <mxGeometry width="50" height="50" relative="1" as="geometry">
                        <mxPoint x="1610" y="256" as="sourcePoint"/>
                        <mxPoint x="1080" y="416" as="targetPoint"/>
                    </mxGeometry>
                </mxCell>
                <mxCell id="67" value="&lt;font style=&quot;font-size: 18px;&quot;&gt;Ether&lt;/font&gt;" style="rounded=1;whiteSpace=wrap;html=1;fontFamily=Consolas;fillColor=#70001A;fontColor=#ffffff;strokeColor=#6F0000;horizontal=0;" parent="1" vertex="1">
                    <mxGeometry x="1220" y="316" width="25" height="60" as="geometry"/>
                </mxCell>
                <mxCell id="68" value="Network Storage" style="shape=datastore;whiteSpace=wrap;html=1;strokeWidth=2;fontFamily=Consolas;fontSize=32;gradientDirection=radial;fillColor=#C056F5;" parent="1" vertex="1">
                    <mxGeometry x="890" y="606" width="160" height="180" as="geometry"/>
                </mxCell>
                <mxCell id="69" value="" style="endArrow=classic;html=1;fontFamily=Consolas;fontSize=32;fontColor=#195EFF;strokeWidth=4;startArrow=none;" parent="1" source="70" target="68" edge="1">
                    <mxGeometry width="50" height="50" relative="1" as="geometry">
                        <mxPoint x="1080" y="526" as="sourcePoint"/>
                        <mxPoint x="1090" y="426" as="targetPoint"/>
                    </mxGeometry>
                </mxCell>
                <mxCell id="71" value="" style="endArrow=none;html=1;fontFamily=Consolas;fontSize=32;fontColor=#195EFF;strokeWidth=4;" parent="1" target="70" edge="1">
                    <mxGeometry width="50" height="50" relative="1" as="geometry">
                        <mxPoint x="1080" y="476" as="sourcePoint"/>
                        <mxPoint x="1160" y="586" as="targetPoint"/>
                    </mxGeometry>
                </mxCell>
                <mxCell id="70" value="&lt;font style=&quot;&quot;&gt;&lt;span style=&quot;font-size: 18px;&quot;&gt;IP&lt;/span&gt;&lt;/font&gt;" style="rounded=1;whiteSpace=wrap;html=1;fontFamily=Consolas;fillColor=#488011;fontColor=#ffffff;strokeColor=#2D7600;" parent="1" vertex="1">
                    <mxGeometry x="1018" y="537.8" width="50" height="30" as="geometry"/>
                </mxCell>
                <mxCell id="73" value="" style="endArrow=none;html=1;strokeWidth=4;fontFamily=Consolas;fontSize=32;fontColor=#195EFF;" parent="1" edge="1">
                    <mxGeometry width="50" height="50" relative="1" as="geometry">
                        <mxPoint x="850" y="1080" as="sourcePoint"/>
                        <mxPoint x="850" y="20" as="targetPoint"/>
                    </mxGeometry>
                </mxCell>
                <mxCell id="77" value="Sniffer" style="rounded=1;whiteSpace=wrap;html=1;fontFamily=Consolas;fillColor=#030303;fontColor=#ffffff;strokeColor=#005700;gradientColor=none;gradientDirection=radial;fontSize=19;" parent="1" vertex="1">
                    <mxGeometry x="221" y="541" width="230" height="52.6" as="geometry"/>
                </mxCell>
                <mxCell id="81" value="&lt;font style=&quot;&quot;&gt;&lt;span style=&quot;font-size: 18px;&quot;&gt;ARP&lt;br&gt;&lt;/span&gt;&lt;/font&gt;&lt;font style=&quot;font-size: 11px;&quot;&gt;op=2 (is-at) or 1 (who-has)&lt;/font&gt;" style="rounded=1;whiteSpace=wrap;html=1;fontFamily=Consolas;fillColor=#488011;fontColor=#ffffff;strokeColor=#2D7600;" parent="1" vertex="1">
                    <mxGeometry x="1245" y="316" width="170" height="60" as="geometry"/>
                </mxCell>
                <mxCell id="82" value="&lt;font style=&quot;font-size: 18px;&quot;&gt;MAC&lt;/font&gt;" style="rounded=1;whiteSpace=wrap;html=1;fontFamily=Consolas;fillColor=#70001A;fontColor=#ffffff;strokeColor=#6F0000;horizontal=1;" parent="1" vertex="1">
                    <mxGeometry x="1018" y="505.79999999999995" width="50" height="32" as="geometry"/>
                </mxCell>
                <mxCell id="84" value="&lt;font style=&quot;&quot;&gt;&lt;span style=&quot;font-size: 18px;&quot;&gt;IP&lt;/span&gt;&lt;/font&gt;" style="rounded=1;whiteSpace=wrap;html=1;fontFamily=Consolas;fillColor=#488011;fontColor=#ffffff;strokeColor=#2D7600;" vertex="1" parent="1">
                    <mxGeometry x="21" y="553.8" width="50" height="30" as="geometry"/>
                </mxCell>
                <mxCell id="85" value="&lt;font style=&quot;font-size: 18px;&quot;&gt;MAC&lt;/font&gt;" style="rounded=1;whiteSpace=wrap;html=1;fontFamily=Consolas;fillColor=#70001A;fontColor=#ffffff;strokeColor=#6F0000;horizontal=1;" vertex="1" parent="1">
                    <mxGeometry x="21" y="521.8" width="50" height="32" as="geometry"/>
                </mxCell>
                <mxCell id="86" value="&lt;font style=&quot;&quot;&gt;&lt;span style=&quot;font-size: 18px;&quot;&gt;ARP&lt;br&gt;&lt;/span&gt;&lt;/font&gt;&lt;font style=&quot;font-size: 11px;&quot;&gt;op=1 (who-has, tell)&lt;/font&gt;" style="rounded=1;whiteSpace=wrap;html=1;fontFamily=Consolas;fillColor=#488011;fontColor=#ffffff;strokeColor=#2D7600;" vertex="1" parent="1">
                    <mxGeometry x="-209" y="666" width="170" height="60" as="geometry"/>
                </mxCell>
                <mxCell id="88" style="edgeStyle=none;html=1;startArrow=none;" edge="1" parent="1" source="92" target="77">
                    <mxGeometry relative="1" as="geometry"/>
                </mxCell>
                <mxCell id="99" style="edgeStyle=orthogonalEdgeStyle;html=1;fontSize=21;curved=1;" edge="1" parent="1" source="9" target="87">
                    <mxGeometry relative="1" as="geometry">
                        <Array as="points">
                            <mxPoint x="-340" y="770"/>
                        </Array>
                    </mxGeometry>
                </mxCell>
                <mxCell id="87" value="&lt;font style=&quot;font-size: 18px;&quot;&gt;Ether&lt;/font&gt;" style="rounded=1;whiteSpace=wrap;html=1;fontFamily=Consolas;fillColor=#70001A;fontColor=#ffffff;strokeColor=#6F0000;" vertex="1" parent="1">
                    <mxGeometry x="-219" y="726" width="190" height="60" as="geometry"/>
                </mxCell>
                <mxCell id="91" value="&lt;font style=&quot;&quot;&gt;&lt;span style=&quot;font-size: 18px;&quot;&gt;IP&lt;/span&gt;&lt;/font&gt;" style="rounded=1;whiteSpace=wrap;html=1;fontFamily=Consolas;fillColor=#488011;fontColor=#ffffff;strokeColor=#2D7600;" vertex="1" parent="1">
                    <mxGeometry x="51" y="661.8" width="50" height="30" as="geometry"/>
                </mxCell>
                <mxCell id="93" value="" style="edgeStyle=none;html=1;exitX=1;exitY=0.25;exitDx=0;exitDy=0;endArrow=none;" edge="1" parent="1" source="87" target="91">
                    <mxGeometry relative="1" as="geometry">
                        <mxPoint x="-29" y="741" as="sourcePoint"/>
                        <mxPoint x="203.695652173913" y="562.5999999999999" as="targetPoint"/>
                    </mxGeometry>
                </mxCell>
                <mxCell id="92" value="&lt;font style=&quot;font-size: 18px;&quot;&gt;MAC&lt;/font&gt;" style="rounded=1;whiteSpace=wrap;html=1;fontFamily=Consolas;fillColor=#70001A;fontColor=#ffffff;strokeColor=#6F0000;horizontal=1;" vertex="1" parent="1">
                    <mxGeometry x="51" y="629.8" width="50" height="32" as="geometry"/>
                </mxCell>
                <mxCell id="94" value="&lt;font style=&quot;&quot;&gt;&lt;span style=&quot;font-size: 18px;&quot;&gt;IP&lt;/span&gt;&lt;/font&gt;" style="rounded=1;whiteSpace=wrap;html=1;fontFamily=Consolas;fillColor=#488011;fontColor=#ffffff;strokeColor=#2D7600;" vertex="1" parent="1">
                    <mxGeometry x="91" y="553.8" width="50" height="30" as="geometry"/>
                </mxCell>
                <mxCell id="95" value="&lt;font style=&quot;font-size: 18px;&quot;&gt;MAC&lt;/font&gt;" style="rounded=1;whiteSpace=wrap;html=1;fontFamily=Consolas;fillColor=#70001A;fontColor=#ffffff;strokeColor=#6F0000;horizontal=1;" vertex="1" parent="1">
                    <mxGeometry x="91" y="521.8" width="50" height="32" as="geometry"/>
                </mxCell>
                <mxCell id="96" value="Original Requester" style="text;html=1;strokeColor=none;fillColor=none;align=center;verticalAlign=middle;whiteSpace=wrap;rounded=0;fontSize=20;" vertex="1" parent="1">
                    <mxGeometry x="-9" y="481.2" width="60" height="30" as="geometry"/>
                </mxCell>
                <mxCell id="97" value="Responder" style="text;html=1;strokeColor=none;fillColor=none;align=center;verticalAlign=middle;whiteSpace=wrap;rounded=0;fontSize=21;" vertex="1" parent="1">
                    <mxGeometry x="111" y="491.8" width="60" height="30" as="geometry"/>
                </mxCell>
                <mxCell id="98" value="Requester" style="text;html=1;strokeColor=none;fillColor=none;align=center;verticalAlign=middle;whiteSpace=wrap;rounded=0;fontSize=20;" vertex="1" parent="1">
                    <mxGeometry x="81" y="691.8000000000001" width="60" height="30" as="geometry"/>
                </mxCell>
                <mxCell id="103" style="edgeStyle=none;html=1;fontSize=21;" edge="1" parent="1" source="100" target="48">
                    <mxGeometry relative="1" as="geometry"/>
                </mxCell>
                <mxCell id="105" style="edgeStyle=none;html=1;fontSize=21;" edge="1" parent="1" source="100" target="104">
                    <mxGeometry relative="1" as="geometry"/>
                </mxCell>
                <mxCell id="100" value="" style="shape=image;verticalLabelPosition=bottom;labelBackgroundColor=default;verticalAlign=top;aspect=fixed;imageAspect=0;image=data:image/png,iVBORw0KGgoAAAANSUhEUgAAAPAAAABACAYAAAAkn/rnAAAGxElEQVR4nO2dv2/bRhTHv+8oSzYQZA+EIOhSjd2MFPCQqdbWQUOmDM0QT148ZUiAAsmQyYsmZ3CGdOng3VkKDxkMAf0DHAQIikLI0GatI0vk60ArkvhDJimK1Infz2RTPN670/vy7t0vya1btxSEECsxZRtACMkOBUyIxVDAhFgMBUyIxVDAhFgMBUyIxVDAhFgMBUyIxVDAhFgMBUyIxVDAhFgMBUyIxVDAhFgMBUyIxdTiPjBtQX0HuHoOeFrsjkPTFjg7gGkC0gQMJvkrBNoH9Bxwz4DRxfJsExHILrDxEHCak3y8vkDPgeHrfOvGtATOI8DZnpR5XN7Rq+WWdd1YFR9aNhK1H9i0BZsH1w7UFwwLcB7TlpBQkqB9wegVMExhn4igdgxsNCciGe3PPsO0BfWD2S8+lHdEuiz5SUtQf3pz2b2elPJCtYUifWhVCHWhp8ULANJUbHSBjZYszQi5zjNtxQNj+xSNdnb7BArz3eT/2kvfnnniHaerLVg30hY0usmczmwrGseAkeV9F7ZStg+VRUjA+g4Y9mcLIvALuLm3ugU0B/m8ZGovBfXtFK35tYhrKUQ1fmFIW9C4oZUPpW0qGi8S305SkJcPFUkoBlZVDH8B3D3BZmfWsUxHsXl3+d04rydw3wPuJ8ALdGtMS2AeALXOrOMLFLWnAvexZLYtKF6FQHvA1duJHVFda4Gi9kQwOkqXX/A5wXBFROC8QOiFItt+azE4ta/LVxRl+VDRRMbAY+LiQO0LBo/zE7G0BY0dYPQ2eawtLUG9CziBwYksMSkAuD2Bsx0vpmDejW5YfHF1EpVfEO9E8PUo+vNgWAMA2hNcPrPDyYqgaB9aFZx6vf5r3If60Xds84PA3J5cl9uA80ggPYH3JQcrPgKjP5DuWV8A7x/Bxo9TdgGQS8Hoz/lJRQTmZ8CZKpNpTv4ei9H9N+ZL/AKgJXCm0uC2QH8DvIT5fcsLAu9QMPh9zmDZR0CD+TVzrP91oGAfWhVunAfWC8XVY+CqF46La12UG/hHxet3F3ukQjBM0Ltw34evyffp8/MOkagr7L4FPEzKGhx4IxlZgg8VSaKFHKqK0TPF15OwiJ0DxeZLWYuR0XH3aZQkNPi0uKC8kxRx7AeEhrrMTrr8yPqRaiWWd6S43JcZxwXWZ3rDO0wR+0QIKg3ai495I+9XhdsLXGzaX+dkMVIvpdQLxWAfcIPdjqai8c6+Yfgx2it2VFf/Tp/Gy5CGrDexSynn4cfFAufF7LSLHxcLzOFiYpCWoPYAcO7Db2Vi27ryRgpVFYOfQleLNaLpv4GjBs7KRtqCrYNs9ZHHLIcNPpQHmQQMjONiwAvMF/txMbB5L10XEUi2fLHK6F9lW7D6VM2HMgt4jHekuDwLz4uajmLrfrI3aZJ5UkLmUVUfKn07YVUrnuRHlX1o4RY4rssyb2XRNPIkuuK1Lxj9Hr0U7lvain1xcq9sC5Kjp4r/TjOnTnV3lX0os4Dj1un6K4uSLU4QEWx0wteTir/y9FdzAKtIqu5DmQQc99ZKvY50d3YdKpB+frRKmOAKoT73Blfdh1ILOGohP5Bt6D+qS+hFLFEk1z2e7dlrWeaS142q+1AqAZs9Qb0TEe/mdFKEQuB9WugR68tueNeMe1aiPStK1XwokYDziHeXQdzgxbohIqg9DFzsA+6HUsxZK2z3oRsFHHde0zL2TfobAgS4uOG+mBfKuhLlZHrO+DeKqvnQ3HngcbwbEm9fMNhdXLxRK4vMw/kL9KUlqB/bX/FJMREno2hfcPW6JINWjKr7UKyAzZ5gqxs+2M3r5XgaxzvARcSmiGOgNrUpQkRg2oLGG9+m4BGvNmI6iq03gsaewAQ2gEyXNyRe+CcosvW9psI+BER0oed1LfKeW1NVDE8ETmAeT5qKeheoT+6MTO/1BIP3wNZBbiYVijQVTgeh8s9byJBqy2MFqLoPhQW8Gz1YtaxzgrwjxdXddCdBApOXiVh4FGgWyh4wXGWK8KHPnz9nNS8zd+7cufGeUBfaO509eUP7guGSD/lyn4eP7InDt6c6E/WA30oM9yneeVTVh2JPpSzjp1WkJXAeALX7gJmKUbR//fMiKU4cXCWiVq55J4LBGeLLC8A9B9ycf75l3VmWD61qCzz3WFmSD3ECXocWoCqsqoBL305ICMkOBUyIxVDAhFgMBUyIxVDAhFgMBUyIxVDAhFgMBUyIxSx8KiW5mfGPpg9nr5ZkDVkn2AITYjEUMCEWw7XQhFgMW2BCLIYCJsRiKGBCLIYCJsRiKGBCLIYCJsRiKGBCLIYCJsRi/geaHVgZopvW1AAAAABJRU5ErkJggg==;" vertex="1" parent="1">
                    <mxGeometry x="570" y="537.8000000000001" width="240" height="64" as="geometry"/>
                </mxCell>
                <mxCell id="104" value="Special Information" style="rounded=1;whiteSpace=wrap;html=1;fontFamily=Consolas;fillColor=#c056f5;fontColor=#ffffff;strokeColor=#6F0000;fontSize=22;" vertex="1" parent="1">
                    <mxGeometry x="659" y="691.8" width="151" height="70" as="geometry"/>
                </mxCell>
                <mxCell id="107" value="&lt;font style=&quot;font-size: 17px;&quot;&gt;who-has?&lt;/font&gt;" style="endArrow=none;html=1;fontFamily=Consolas;fontSize=11;" edge="1" parent="1" source="14" target="9">
                    <mxGeometry width="50" height="50" relative="1" as="geometry">
                        <mxPoint x="-424.11642172523943" y="631.8" as="sourcePoint"/>
                        <mxPoint x="-400.41853035143777" y="571.2" as="targetPoint"/>
                    </mxGeometry>
                </mxCell>
                <mxCell id="110" value="" style="endArrow=none;html=1;fontFamily=Consolas;fontSize=11;startArrow=none;" edge="1" parent="1" source="77" target="109">
                    <mxGeometry width="50" height="50" relative="1" as="geometry">
                        <mxPoint x="345.6211131434543" y="593.5999999999999" as="sourcePoint"/>
                        <mxPoint x="465.0253462241967" y="920" as="targetPoint"/>
                    </mxGeometry>
                </mxCell>
                <mxCell id="109" value="#save_to_storage" style="rounded=1;whiteSpace=wrap;html=1;fontFamily=Consolas;fillColor=#030303;fontColor=#ffffff;strokeColor=#005700;gradientColor=none;gradientDirection=radial;fontSize=19;" vertex="1" parent="1">
                    <mxGeometry x="250" y="629.8000000000001" width="230" height="52.6" as="geometry"/>
                </mxCell>
            </root>
        </mxGraphModel>
    </diagram>
</mxfile>
